<svg width="256" height="60" viewBox="0 0 256 60" fill="none" xmlns="http://www.w3.org/2000/svg">
<g clip-path="url(#clip0_874_9048)">
<path d="M30.0056 30.5712C29.6745 30.2484 29.283 29.9941 28.8535 29.8228C28.4239 29.6515 27.9648 29.5667 27.5025 29.573H6.99863V22.5703H25.5035C25.9587 22.5811 26.4112 22.4978 26.8326 22.3256C27.254 22.1534 27.6354 21.896 27.9527 21.5695C28.2857 21.2435 28.5503 20.8543 28.7309 20.4247C28.9115 19.9951 29.0045 19.5337 29.0045 19.0677C29.0045 18.6016 28.9115 18.1403 28.7309 17.7107C28.5503 17.2811 28.2857 16.8918 27.9527 16.5658C27.6338 16.2417 27.2521 15.986 26.831 15.8143C26.4099 15.6427 25.9582 15.5588 25.5035 15.5676H6.99863V8.57006H21.1867C20.6987 8.13329 20.3044 7.6021 20.0275 7.00862C19.7507 6.41513 19.597 5.77167 19.5758 5.11713C19.5547 4.46258 19.6664 3.81055 19.9044 3.20042C20.1424 2.5903 20.5016 2.03474 20.9603 1.56736H3.49728C3.03517 1.55644 2.57565 1.63941 2.14653 1.81124C1.71742 1.98308 1.32764 2.24021 1.00078 2.56706C0.673927 2.89392 0.4168 3.2837 0.244965 3.71281C0.0731293 4.14193 -0.0098403 4.60146 0.00107896 5.06357V33.0744C-0.010548 33.5369 0.0718983 33.997 0.243417 34.4267C0.414936 34.8564 0.671952 35.2468 0.998879 35.5742C1.32581 35.9016 1.71583 36.1592 2.1453 36.3314C2.57477 36.5035 3.03472 36.5866 3.49728 36.5757H27.5025C28.1948 36.5683 28.8697 36.3581 29.4438 35.9711C30.0178 35.584 30.4658 35.0371 30.7322 34.3981C30.9986 33.759 31.0717 33.0559 30.9426 32.3757C30.8135 31.6955 30.4877 31.0681 30.0056 30.5712Z" fill="#4BAF48"/>
<path d="M70.6598 1.76555C69.0956 1.23302 67.7913 1.61376 66.7623 2.91808L54.5088 18.4207L42.258 2.91808C41.2289 1.58289 39.9246 1.20215 38.3527 1.76555C36.7808 2.32896 36.0039 3.39918 36.0039 5.06881V33.0744C36.0039 34.0031 36.3728 34.8936 37.0294 35.5503C37.6861 36.2069 38.5766 36.5758 39.5053 36.5758C40.4339 36.5758 41.3244 36.2069 41.9811 35.5503C42.6377 34.8936 43.0066 34.0031 43.0066 33.0744V15.169L51.7535 26.2313C52.0881 26.6366 52.5081 26.963 52.9835 27.1871C53.459 27.4112 53.9781 27.5274 54.5037 27.5274C55.0293 27.5274 55.5484 27.4112 56.0238 27.1871C56.4993 26.963 56.9193 26.6366 57.2538 26.2313L66.0008 15.169V26.7458C66.4635 26.2835 67.015 25.9198 67.622 25.6764C68.2291 25.4331 68.8792 25.3152 69.5331 25.3299C70.1869 25.3445 70.831 25.4915 71.4266 25.7618C72.0221 26.0321 72.5568 26.4202 72.9983 26.9027V5.06366C73.0069 3.39831 72.2274 2.29894 70.6598 1.76555Z" fill="#4BAF48"/>
<path d="M108.17 18.0222C109.386 16.2772 110.031 14.1984 110.017 12.0717C109.999 9.29253 108.887 6.63249 106.922 4.66682C104.957 2.70115 102.298 1.58783 99.5185 1.56761H83.5142C83.0593 1.55817 82.6072 1.64212 82.186 1.81424C81.7647 1.98637 81.3832 2.24302 81.0651 2.56837C80.7282 2.89123 80.4611 3.27968 80.2801 3.70975C80.0992 4.13982 80.0082 4.6024 80.0129 5.06897V33.0746C80.0382 33.9952 80.4152 34.8712 81.0664 35.5224C81.7176 36.1736 82.5936 36.5506 83.5142 36.5759H93.1024C92.3735 35.5562 91.9774 34.3362 91.9682 33.0828C91.959 31.8293 92.3371 30.6036 93.0509 29.5733H87.0156V22.5706H101.517C102.21 22.5632 102.889 22.7636 103.467 23.146C104.045 23.5283 104.494 24.075 104.758 24.7156C105.022 25.3561 105.088 26.061 104.947 26.7394C104.807 27.4177 104.466 28.0383 103.969 28.521C103.657 28.8558 103.281 29.1244 102.863 29.3108C103.653 30.3273 104.1 31.5686 104.139 32.8554C104.178 34.1423 103.806 35.4082 103.079 36.4705C105.555 36.0677 107.81 34.8039 109.446 32.9016C111.082 30.9993 111.994 28.5807 112.022 26.0719C112.022 22.8047 110.738 20.1214 108.17 18.0222ZM101.968 14.5208C101.656 14.8577 101.277 15.1251 100.855 15.3055C100.433 15.4859 99.9774 15.5753 99.5185 15.5679H87.0156V8.57031H99.5185C100.212 8.56217 100.891 8.7622 101.469 9.14454C102.047 9.52688 102.498 10.0739 102.761 10.7149C103.025 11.3558 103.091 12.0612 102.949 12.7397C102.808 13.4183 102.466 14.0387 101.968 14.5208Z" fill="#4BAF48"/>
<path d="M134.917 3.46838C134.318 2.30041 133.289 1.71728 131.83 1.719C130.327 1.719 129.278 2.30212 128.681 3.46838L114.665 31.4715C114.451 31.8847 114.322 32.3372 114.288 32.8015C114.253 33.2658 114.313 33.7323 114.465 34.1727C114.604 34.6077 114.831 35.0095 115.132 35.3533C115.433 35.6971 115.801 35.9756 116.214 36.1716C116.627 36.3858 117.08 36.5137 117.544 36.5478C118.009 36.5818 118.475 36.5213 118.915 36.3697C119.351 36.2317 119.753 36.0053 120.097 35.7047C120.441 35.4042 120.719 35.0359 120.914 34.6229L123.466 29.5729H140.507C140.989 28.5815 141.762 27.7604 142.722 27.2189C143.884 26.5854 145.235 26.3918 146.527 26.6735L134.917 3.46838ZM126.962 22.5702L131.814 12.8662L136.615 22.5702H126.962Z" fill="#4BAF48"/>
<path d="M180.93 5.21553C179.778 4.04029 178.4 3.111 176.879 2.48395C175.358 1.8569 173.725 1.54513 172.08 1.56753H157.066C156.605 1.55732 156.146 1.64082 155.717 1.81297C155.289 1.98512 154.899 2.24236 154.573 2.56914C154.247 2.89592 153.99 3.28546 153.819 3.71423C153.647 4.14299 153.564 4.60207 153.575 5.06374V33.0745C153.566 33.5292 153.65 33.9809 153.822 34.402C153.994 34.8231 154.249 35.2047 154.573 35.5237C154.899 35.8567 155.289 36.1213 155.718 36.3019C156.148 36.4825 156.609 36.5755 157.075 36.5755C157.541 36.5755 158.003 36.4825 158.432 36.3019C158.862 36.1213 159.251 35.8567 159.577 35.5237C159.902 35.2055 160.159 34.824 160.331 34.4028C160.503 33.9815 160.587 33.5295 160.578 33.0745V26.5735H170.526L175.929 32.5703C175.929 32.4777 175.929 32.3825 175.929 32.2899C175.929 31.0118 176.434 29.7854 177.334 28.878C178.234 27.9707 179.456 27.4558 180.734 27.4456L178.378 24.8241C180.228 23.7411 181.776 22.2107 182.88 20.3735C184.266 17.9839 184.825 15.2044 184.472 12.4648C184.119 9.72527 182.873 7.17835 180.927 5.21809L180.93 5.21553ZM175.98 17.9706C175.471 18.4851 174.863 18.8919 174.193 19.1668C173.523 19.4417 172.804 19.5791 172.08 19.5708H160.578V8.57024H172.08C172.804 8.56287 173.521 8.70017 174.191 8.97408C174.861 9.24799 175.469 9.65299 175.98 10.1653C176.499 10.6722 176.909 11.28 177.184 11.9512C177.459 12.6223 177.594 13.3427 177.58 14.0679C177.588 14.7924 177.451 15.5111 177.176 16.1814C176.901 16.8517 176.494 17.4601 175.98 17.9706Z" fill="#4BAF48"/>
<path d="M25.397 9.18775C27.7655 9.18775 29.6855 7.26768 29.6855 4.89916C29.6855 2.53065 27.7655 0.610596 25.397 0.610596C23.0285 0.610596 21.1084 2.53065 21.1084 4.89916C21.1084 7.26768 23.0285 9.18775 25.397 9.18775Z" fill="#C5D12E"/>
<path d="M69.6743 36.2463C72.0428 36.2463 73.9629 34.3263 73.9629 31.9578C73.9629 29.5892 72.0428 27.6692 69.6743 27.6692C67.3058 27.6692 65.3857 29.5892 65.3857 31.9578C65.3857 34.3263 67.3058 36.2463 69.6743 36.2463Z" fill="#C5D12E"/>
<path d="M98.0024 37.2624C100.371 37.2624 102.291 35.3424 102.291 32.9739C102.291 30.6054 100.371 28.6853 98.0024 28.6853C95.6339 28.6853 93.7139 30.6054 93.7139 32.9739C93.7139 35.3424 95.6339 37.2624 98.0024 37.2624Z" fill="#C5D12E"/>
<path d="M145.72 36.5754C148.089 36.5754 150.009 34.6554 150.009 32.2869C150.009 29.9183 148.089 27.9983 145.72 27.9983C143.352 27.9983 141.432 29.9183 141.432 32.2869C141.432 34.6554 143.352 36.5754 145.72 36.5754Z" fill="#C5D12E"/>
<path d="M181.336 37.3865C183.705 37.3865 185.625 35.4664 185.625 33.0979C185.625 30.7294 183.705 28.8093 181.336 28.8093C178.968 28.8093 177.048 30.7294 177.048 33.0979C177.048 35.4664 178.968 37.3865 181.336 37.3865Z" fill="#C5D12E"/>
<path d="M219.789 30.772L201.104 19.1205C205.307 16.4793 209.509 13.8346 213.709 11.1866C212.664 10.8528 211.752 10.1955 211.105 9.30948C210.457 8.4235 210.108 7.3547 210.108 6.2574C210.108 6.13649 210.108 6.01557 210.121 5.89466C205.624 9.12588 201.128 12.3502 196.632 15.5677V5.0637C196.643 4.60881 196.56 4.15659 196.388 3.73523C196.216 3.31386 195.96 2.93237 195.634 2.61455C195.309 2.28138 194.92 2.01664 194.491 1.83589C194.062 1.65513 193.601 1.56201 193.135 1.56201C192.669 1.56201 192.208 1.65513 191.779 1.83589C191.35 2.01664 190.961 2.28138 190.636 2.61455C190.308 2.93162 190.05 3.31279 189.877 3.73421C189.704 4.15563 189.62 4.60823 189.63 5.0637V33.0745C189.62 33.5299 189.705 33.9824 189.878 34.4038C190.051 34.8252 190.309 35.2064 190.636 35.5236C190.961 35.8568 191.35 36.1215 191.779 36.3023C192.208 36.4831 192.669 36.5762 193.135 36.5762C193.601 36.5762 194.062 36.4831 194.491 36.3023C194.92 36.1215 195.309 35.8568 195.634 35.5236C195.96 35.2056 196.216 34.8241 196.388 34.4028C196.56 33.9815 196.643 33.5293 196.632 33.0745V22.5704C202.582 26.841 208.534 31.1081 214.489 35.3718C214.813 35.7579 215.219 36.0665 215.677 36.2749C216.136 36.4833 216.635 36.5861 217.139 36.5758C217.99 36.5868 218.814 36.2826 219.454 35.7217C219.807 35.425 220.095 35.0592 220.302 34.6469C220.508 34.2345 220.627 33.7843 220.653 33.324C220.689 32.8623 220.631 32.3981 220.482 31.9594C220.334 31.5207 220.098 31.1168 219.789 30.772Z" fill="#4BAF48"/>
<path d="M216.359 9.62012C218.727 9.62012 220.647 7.70005 220.647 5.33154C220.647 2.96302 218.727 1.04297 216.359 1.04297C213.99 1.04297 212.07 2.96302 212.07 5.33154C212.07 7.70005 213.99 9.62012 216.359 9.62012Z" fill="#C5D12E"/>
<path d="M255.131 31.0061L236.446 19.3547C240.65 16.7134 244.852 14.0688 249.052 11.4207C248.007 11.0869 247.094 10.4296 246.447 9.54361C245.8 8.65763 245.451 7.58883 245.45 6.49154C245.45 6.37062 245.45 6.24972 245.45 6.13138C240.962 9.36431 236.469 12.5878 231.972 15.8019V5.30298C231.983 4.84788 231.899 4.39551 231.727 3.97412C231.555 3.55272 231.298 3.17134 230.971 2.85384C230.646 2.52074 230.258 2.25605 229.829 2.07533C229.4 1.8946 228.939 1.80151 228.473 1.80151C228.008 1.80151 227.547 1.8946 227.118 2.07533C226.689 2.25605 226.301 2.52074 225.975 2.85384C225.649 3.17109 225.391 3.55229 225.217 3.97366C225.044 4.39504 224.96 4.84755 224.97 5.30298V33.3086C224.96 33.7641 225.044 34.2167 225.217 34.6381C225.39 35.0595 225.648 35.4407 225.975 35.7578C226.301 36.0909 226.689 36.3555 227.118 36.5363C227.547 36.717 228.008 36.8101 228.473 36.8101C228.939 36.8101 229.4 36.717 229.829 36.5363C230.258 36.3555 230.646 36.0909 230.971 35.7578C231.298 35.4404 231.555 35.0591 231.728 34.6377C231.9 34.2162 231.983 33.7638 231.972 33.3086V22.8149C237.924 27.0854 243.876 31.3526 249.829 35.6163C250.152 36.0023 250.557 36.3109 251.016 36.5193C251.474 36.7276 251.973 36.8305 252.476 36.8203C253.327 36.831 254.151 36.5268 254.791 35.9661C255.144 35.6701 255.432 35.3048 255.638 34.8928C255.844 34.4808 255.963 34.0309 255.988 33.571C256.027 33.1077 255.971 32.6412 255.824 32.2002C255.677 31.7592 255.441 31.3529 255.131 31.0061Z" fill="#4BAF48"/>
<path d="M251.7 9.85645C254.068 9.85645 255.988 7.93639 255.988 5.56788C255.988 3.19937 254.068 1.2793 251.7 1.2793C249.331 1.2793 247.411 3.19937 247.411 5.56788C247.411 7.93639 249.331 9.85645 251.7 9.85645Z" fill="#C5D12E"/>
<path d="M54.5731 55.6284C54.3998 55.6284 54.2524 55.5721 54.1311 55.4594C54.0184 55.3381 53.9621 55.1908 53.9621 55.0174V46.0864C53.9621 45.9044 54.0184 45.7571 54.1311 45.6444C54.2524 45.5318 54.3998 45.4754 54.5731 45.4754H56.9521C57.5934 45.4754 58.1611 45.6098 58.6551 45.8784C59.1578 46.1471 59.5478 46.5198 59.8251 46.9964C60.1111 47.4731 60.2541 48.0234 60.2541 48.6474C60.2541 49.2368 60.1111 49.7611 59.8251 50.2204C59.5478 50.6798 59.1578 51.0394 58.6551 51.2994C58.1611 51.5594 57.5934 51.6894 56.9521 51.6894H55.1841V55.0174C55.1841 55.1908 55.1278 55.3381 55.0151 55.4594C54.9024 55.5721 54.7551 55.6284 54.5731 55.6284ZM59.9811 55.6284C59.8684 55.6284 59.7688 55.6068 59.6821 55.5634C59.5954 55.5114 59.5174 55.4334 59.4481 55.3294L57.0561 51.4814L58.2521 51.1434L60.4621 54.6924C60.6094 54.9264 60.6311 55.1431 60.5271 55.3424C60.4231 55.5331 60.2411 55.6284 59.9811 55.6284ZM55.1841 50.5454H56.9521C57.3681 50.5454 57.7321 50.4674 58.0441 50.3114C58.3648 50.1468 58.6161 49.9214 58.7981 49.6354C58.9801 49.3408 59.0711 49.0114 59.0711 48.6474C59.0711 48.2488 58.9801 47.8978 58.7981 47.5944C58.6161 47.2824 58.3648 47.0441 58.0441 46.8794C57.7321 46.7061 57.3681 46.6194 56.9521 46.6194H55.1841V50.5454ZM65.2845 55.6804C64.5652 55.6804 63.9282 55.5288 63.3735 55.2254C62.8275 54.9134 62.3985 54.4888 62.0865 53.9514C61.7745 53.4054 61.6185 52.7814 61.6185 52.0794C61.6185 51.3688 61.7658 50.7448 62.0605 50.2074C62.3552 49.6614 62.7625 49.2368 63.2825 48.9334C63.8025 48.6214 64.4048 48.4654 65.0895 48.4654C65.7568 48.4654 66.3332 48.6171 66.8185 48.9204C67.3038 49.2151 67.6765 49.6268 67.9365 50.1554C68.1965 50.6754 68.3265 51.2778 68.3265 51.9624C68.3265 52.1098 68.2745 52.2354 68.1705 52.3394C68.0752 52.4348 67.9452 52.4824 67.7805 52.4824H62.4375V51.5204H67.7935L67.2605 51.8974C67.2518 51.4381 67.1608 51.0264 66.9875 50.6624C66.8142 50.2984 66.5672 50.0124 66.2465 49.8044C65.9258 49.5964 65.5402 49.4924 65.0895 49.4924C64.5955 49.4924 64.1665 49.6051 63.8025 49.8304C63.4472 50.0558 63.1742 50.3634 62.9835 50.7534C62.7928 51.1434 62.6975 51.5854 62.6975 52.0794C62.6975 52.5734 62.8058 53.0154 63.0225 53.4054C63.2478 53.7868 63.5512 54.0901 63.9325 54.3154C64.3225 54.5408 64.7732 54.6534 65.2845 54.6534C65.5618 54.6534 65.8478 54.6014 66.1425 54.4974C66.4458 54.3934 66.6842 54.2721 66.8575 54.1334C66.9788 54.0381 67.1088 53.9904 67.2475 53.9904C67.3862 53.9818 67.5075 54.0208 67.6115 54.1074C67.7415 54.2288 67.8108 54.3631 67.8195 54.5104C67.8282 54.6491 67.7675 54.7704 67.6375 54.8744C67.3428 55.1084 66.9745 55.3034 66.5325 55.4594C66.0992 55.6068 65.6832 55.6804 65.2845 55.6804ZM72.7937 55.6804C72.1437 55.6804 71.5631 55.5244 71.0517 55.2124C70.5404 54.9004 70.1374 54.4714 69.8427 53.9254C69.5481 53.3794 69.4007 52.7641 69.4007 52.0794C69.4007 51.3861 69.5567 50.7708 69.8687 50.2334C70.1894 49.6874 70.6184 49.2584 71.1557 48.9464C71.7017 48.6258 72.3127 48.4654 72.9887 48.4654C73.6734 48.4654 74.2844 48.6258 74.8217 48.9464C75.3591 49.2584 75.7837 49.6874 76.0957 50.2334C76.4164 50.7794 76.5811 51.3948 76.5897 52.0794L76.1217 52.1964C76.1217 52.8551 75.9744 53.4488 75.6797 53.9774C75.3851 54.5061 74.9864 54.9221 74.4837 55.2254C73.9897 55.5288 73.4264 55.6804 72.7937 55.6804ZM72.9887 54.6144C73.4567 54.6144 73.8727 54.5061 74.2367 54.2894C74.6007 54.0641 74.8867 53.7608 75.0947 53.3794C75.3114 52.9894 75.4197 52.5561 75.4197 52.0794C75.4197 51.5941 75.3114 51.1608 75.0947 50.7794C74.8867 50.3894 74.6007 50.0861 74.2367 49.8694C73.8727 49.6441 73.4567 49.5314 72.9887 49.5314C72.5381 49.5314 72.1264 49.6441 71.7537 49.8694C71.3811 50.0861 71.0864 50.3894 70.8697 50.7794C70.6617 51.1608 70.5577 51.5941 70.5577 52.0794C70.5577 52.5561 70.6617 52.9894 70.8697 53.3794C71.0864 53.7608 71.3811 54.0641 71.7537 54.2894C72.1264 54.5061 72.5381 54.6144 72.9887 54.6144ZM75.9787 55.6414C75.8054 55.6414 75.6624 55.5851 75.5497 55.4724C75.4371 55.3598 75.3807 55.2168 75.3807 55.0434V52.9634L75.6277 51.7154L76.5897 52.0794V55.0434C76.5897 55.2168 76.5291 55.3598 76.4077 55.4724C76.2951 55.5851 76.1521 55.6414 75.9787 55.6414ZM80.1749 55.6284C79.8109 55.6284 79.4859 55.5288 79.1999 55.3294C78.9139 55.1301 78.6885 54.8571 78.5239 54.5104C78.3679 54.1551 78.2899 53.7478 78.2899 53.2884V46.0604C78.2899 45.8871 78.3419 45.7484 78.4459 45.6444C78.5585 45.5318 78.7015 45.4754 78.8749 45.4754C79.0569 45.4754 79.1999 45.5318 79.3039 45.6444C79.4165 45.7484 79.4729 45.8871 79.4729 46.0604V53.2884C79.4729 53.6264 79.5379 53.9038 79.6679 54.1204C79.8065 54.3371 79.9755 54.4454 80.1749 54.4454H80.4999C80.6645 54.4454 80.7945 54.5018 80.8899 54.6144C80.9852 54.7184 81.0329 54.8614 81.0329 55.0434C81.0329 55.2168 80.9592 55.3598 80.8119 55.4724C80.6732 55.5764 80.4912 55.6284 80.2659 55.6284H80.1749ZM83.1255 55.6284C82.9435 55.6284 82.7961 55.5721 82.6835 55.4594C82.5708 55.3468 82.5145 55.2038 82.5145 55.0304V49.1154C82.5145 48.9334 82.5708 48.7904 82.6835 48.6864C82.7961 48.5738 82.9435 48.5174 83.1255 48.5174C83.2988 48.5174 83.4418 48.5738 83.5545 48.6864C83.6671 48.7904 83.7235 48.9334 83.7235 49.1154V55.0304C83.7235 55.2038 83.6671 55.3468 83.5545 55.4594C83.4418 55.5721 83.2988 55.6284 83.1255 55.6284ZM83.1125 47.2824C82.8958 47.2824 82.7095 47.2044 82.5535 47.0484C82.3975 46.8924 82.3195 46.7018 82.3195 46.4764C82.3195 46.2511 82.3975 46.0648 82.5535 45.9174C82.7181 45.7614 82.9088 45.6834 83.1255 45.6834C83.3335 45.6834 83.5155 45.7614 83.6715 45.9174C83.8361 46.0648 83.9185 46.2511 83.9185 46.4764C83.9185 46.7018 83.8405 46.8924 83.6845 47.0484C83.5285 47.2044 83.3378 47.2824 83.1125 47.2824ZM86.8549 55.3424L85.9969 54.6924L90.5859 48.7384L91.3789 49.4404L86.8549 55.3424ZM86.4389 55.6284C86.0749 55.6284 85.8929 55.4464 85.8929 55.0824C85.8929 54.7098 86.0749 54.5234 86.4389 54.5234H91.0279C91.3919 54.5234 91.5739 54.7098 91.5739 55.0824C91.5739 55.4464 91.3919 55.6284 91.0279 55.6284H86.4389ZM86.3479 49.6224C85.9752 49.6224 85.7889 49.4361 85.7889 49.0634C85.7889 48.6994 85.9752 48.5174 86.3479 48.5174H90.9239C91.2965 48.5174 91.4829 48.6994 91.4829 49.0634C91.4829 49.4361 91.2965 49.6224 90.9239 49.6224H86.3479ZM96.3245 55.6804C95.6052 55.6804 94.9682 55.5288 94.4135 55.2254C93.8675 54.9134 93.4385 54.4888 93.1265 53.9514C92.8145 53.4054 92.6585 52.7814 92.6585 52.0794C92.6585 51.3688 92.8059 50.7448 93.1005 50.2074C93.3952 49.6614 93.8025 49.2368 94.3225 48.9334C94.8425 48.6214 95.4449 48.4654 96.1295 48.4654C96.7969 48.4654 97.3732 48.6171 97.8585 48.9204C98.3439 49.2151 98.7165 49.6268 98.9765 50.1554C99.2365 50.6754 99.3665 51.2778 99.3665 51.9624C99.3665 52.1098 99.3145 52.2354 99.2105 52.3394C99.1152 52.4348 98.9852 52.4824 98.8205 52.4824H93.4775V51.5204H98.8335L98.3005 51.8974C98.2919 51.4381 98.2009 51.0264 98.0275 50.6624C97.8542 50.2984 97.6072 50.0124 97.2865 49.8044C96.9659 49.5964 96.5802 49.4924 96.1295 49.4924C95.6355 49.4924 95.2065 49.6051 94.8425 49.8304C94.4872 50.0558 94.2142 50.3634 94.0235 50.7534C93.8329 51.1434 93.7375 51.5854 93.7375 52.0794C93.7375 52.5734 93.8459 53.0154 94.0625 53.4054C94.2879 53.7868 94.5912 54.0901 94.9725 54.3154C95.3625 54.5408 95.8132 54.6534 96.3245 54.6534C96.6019 54.6534 96.8879 54.6014 97.1825 54.4974C97.4859 54.3934 97.7242 54.2721 97.8975 54.1334C98.0189 54.0381 98.1489 53.9904 98.2875 53.9904C98.4262 53.9818 98.5475 54.0208 98.6515 54.1074C98.7815 54.2288 98.8509 54.3631 98.8595 54.5104C98.8682 54.6491 98.8075 54.7704 98.6775 54.8744C98.3829 55.1084 98.0145 55.3034 97.5725 55.4594C97.1392 55.6068 96.7232 55.6804 96.3245 55.6804ZM107.987 55.6284C107.823 55.6284 107.68 55.5721 107.558 55.4594C107.446 55.3381 107.389 55.1908 107.389 55.0174V51.8974L103.892 46.4244C103.788 46.2684 103.749 46.1168 103.775 45.9694C103.801 45.8221 103.866 45.7051 103.97 45.6184C104.083 45.5231 104.217 45.4754 104.373 45.4754C104.503 45.4754 104.607 45.5058 104.685 45.5664C104.763 45.6184 104.837 45.6964 104.906 45.8004L108.286 51.1954H107.753L111.159 45.7744C111.229 45.6791 111.307 45.6054 111.393 45.5534C111.48 45.5014 111.584 45.4754 111.705 45.4754C111.853 45.4754 111.974 45.5274 112.069 45.6314C112.165 45.7268 112.221 45.8481 112.238 45.9954C112.256 46.1341 112.217 46.2771 112.121 46.4244L108.598 51.8974V55.0174C108.598 55.1908 108.538 55.3381 108.416 55.4594C108.304 55.5721 108.161 55.6284 107.987 55.6284ZM115.404 55.6804C114.71 55.6804 114.091 55.5288 113.545 55.2254C113.007 54.9134 112.583 54.4888 112.271 53.9514C111.967 53.4054 111.816 52.7814 111.816 52.0794C111.816 51.3688 111.967 50.7448 112.271 50.2074C112.583 49.6614 113.007 49.2368 113.545 48.9334C114.091 48.6214 114.71 48.4654 115.404 48.4654C116.097 48.4654 116.712 48.6214 117.25 48.9334C117.796 49.2368 118.22 49.6614 118.524 50.2074C118.836 50.7448 118.996 51.3688 119.005 52.0794C119.005 52.7814 118.849 53.4054 118.537 53.9514C118.225 54.4888 117.8 54.9134 117.263 55.2254C116.725 55.5288 116.106 55.6804 115.404 55.6804ZM115.404 54.6144C115.88 54.6144 116.301 54.5061 116.665 54.2894C117.029 54.0728 117.315 53.7738 117.523 53.3924C117.731 53.0111 117.835 52.5734 117.835 52.0794C117.835 51.5854 117.731 51.1478 117.523 50.7664C117.315 50.3764 117.029 50.0731 116.665 49.8564C116.301 49.6398 115.88 49.5314 115.404 49.5314C114.936 49.5314 114.515 49.6398 114.143 49.8564C113.779 50.0731 113.493 50.3764 113.285 50.7664C113.077 51.1478 112.973 51.5854 112.973 52.0794C112.973 52.5734 113.077 53.0111 113.285 53.3924C113.493 53.7738 113.779 54.0728 114.143 54.2894C114.515 54.5061 114.936 54.6144 115.404 54.6144ZM123.994 55.6934C123.387 55.6934 122.846 55.5678 122.369 55.3164C121.892 55.0564 121.515 54.6794 121.238 54.1854C120.961 53.6914 120.822 53.0891 120.822 52.3784V49.1024C120.822 48.9378 120.878 48.7991 120.991 48.6864C121.112 48.5651 121.255 48.5044 121.42 48.5044C121.593 48.5044 121.736 48.5651 121.849 48.6864C121.97 48.7991 122.031 48.9378 122.031 49.1024V52.3784C122.031 52.8811 122.126 53.2971 122.317 53.6264C122.508 53.9558 122.763 54.2028 123.084 54.3674C123.413 54.5234 123.782 54.6014 124.189 54.6014C124.588 54.6014 124.939 54.5234 125.242 54.3674C125.554 54.2114 125.801 54.0034 125.983 53.7434C126.174 53.4748 126.269 53.1758 126.269 52.8464H127.049C127.032 53.3838 126.889 53.8691 126.62 54.3024C126.36 54.7358 126 55.0781 125.541 55.3294C125.082 55.5721 124.566 55.6934 123.994 55.6934ZM126.867 55.6284C126.694 55.6284 126.551 55.5721 126.438 55.4594C126.325 55.3468 126.269 55.2038 126.269 55.0304V49.1024C126.269 48.9291 126.325 48.7861 126.438 48.6734C126.551 48.5608 126.694 48.5044 126.867 48.5044C127.04 48.5044 127.183 48.5608 127.296 48.6734C127.409 48.7861 127.465 48.9291 127.465 49.1024V55.0304C127.465 55.2038 127.409 55.3468 127.296 55.4594C127.183 55.5721 127.04 55.6284 126.867 55.6284ZM130.347 51.2084C130.364 50.6798 130.499 50.2074 130.75 49.7914C131.01 49.3754 131.352 49.0461 131.777 48.8034C132.202 48.5608 132.67 48.4394 133.181 48.4394C133.658 48.4394 134.013 48.5131 134.247 48.6604C134.49 48.8078 134.581 48.9941 134.52 49.2194C134.494 49.3494 134.442 49.4448 134.364 49.5054C134.286 49.5574 134.195 49.5878 134.091 49.5964C133.987 49.5964 133.874 49.5878 133.753 49.5704C133.224 49.4838 132.752 49.4968 132.336 49.6094C131.92 49.7221 131.591 49.9171 131.348 50.1944C131.105 50.4718 130.984 50.8098 130.984 51.2084H130.347ZM130.386 55.6284C130.204 55.6284 130.061 55.5808 129.957 55.4854C129.853 55.3814 129.801 55.2341 129.801 55.0434V49.1024C129.801 48.9204 129.853 48.7774 129.957 48.6734C130.061 48.5694 130.204 48.5174 130.386 48.5174C130.585 48.5174 130.733 48.5694 130.828 48.6734C130.932 48.7688 130.984 48.9118 130.984 49.1024V55.0434C130.984 55.2254 130.932 55.3684 130.828 55.4724C130.733 55.5764 130.585 55.6284 130.386 55.6284ZM140.52 55.6284C140.347 55.6284 140.2 55.5721 140.078 55.4594C139.966 55.3381 139.909 55.1908 139.909 55.0174V46.0864C139.909 45.9131 139.966 45.7701 140.078 45.6574C140.2 45.5361 140.347 45.4754 140.52 45.4754H143.12C143.77 45.4754 144.342 45.6184 144.836 45.9044C145.339 46.1904 145.729 46.5848 146.006 47.0874C146.284 47.5814 146.422 48.1578 146.422 48.8164C146.422 49.4491 146.284 50.0124 146.006 50.5064C145.729 51.0004 145.339 51.3861 144.836 51.6634C144.342 51.9408 143.77 52.0794 143.12 52.0794H141.131V55.0174C141.131 55.1908 141.075 55.3381 140.962 55.4594C140.85 55.5721 140.702 55.6284 140.52 55.6284ZM141.131 50.9354H143.12C143.536 50.9354 143.905 50.8444 144.225 50.6624C144.546 50.4804 144.797 50.2291 144.979 49.9084C145.161 49.5878 145.252 49.2238 145.252 48.8164C145.252 48.3831 145.161 48.0018 144.979 47.6724C144.797 47.3431 144.546 47.0874 144.225 46.9054C143.905 46.7148 143.536 46.6194 143.12 46.6194H141.131V50.9354ZM150.798 55.6804C150.105 55.6804 149.485 55.5288 148.939 55.2254C148.402 54.9134 147.977 54.4888 147.665 53.9514C147.362 53.4054 147.21 52.7814 147.21 52.0794C147.21 51.3688 147.362 50.7448 147.665 50.2074C147.977 49.6614 148.402 49.2368 148.939 48.9334C149.485 48.6214 150.105 48.4654 150.798 48.4654C151.492 48.4654 152.107 48.6214 152.644 48.9334C153.19 49.2368 153.615 49.6614 153.918 50.2074C154.23 50.7448 154.391 51.3688 154.399 52.0794C154.399 52.7814 154.243 53.4054 153.931 53.9514C153.619 54.4888 153.195 54.9134 152.657 55.2254C152.12 55.5288 151.5 55.6804 150.798 55.6804ZM150.798 54.6144C151.275 54.6144 151.695 54.5061 152.059 54.2894C152.423 54.0728 152.709 53.7738 152.917 53.3924C153.125 53.0111 153.229 52.5734 153.229 52.0794C153.229 51.5854 153.125 51.1478 152.917 50.7664C152.709 50.3764 152.423 50.0731 152.059 49.8564C151.695 49.6398 151.275 49.5314 150.798 49.5314C150.33 49.5314 149.91 49.6398 149.537 49.8564C149.173 50.0731 148.887 50.3764 148.679 50.7664C148.471 51.1478 148.367 51.5854 148.367 52.0794C148.367 52.5734 148.471 53.0111 148.679 53.3924C148.887 53.7738 149.173 54.0728 149.537 54.2894C149.91 54.5061 150.33 54.6144 150.798 54.6144ZM159.024 55.6284C158.582 55.6284 158.184 55.5201 157.828 55.3034C157.473 55.0781 157.196 54.7791 156.996 54.4064C156.797 54.0251 156.697 53.5918 156.697 53.1064V46.8534C156.697 46.6801 156.749 46.5371 156.853 46.4244C156.966 46.3118 157.109 46.2554 157.282 46.2554C157.456 46.2554 157.599 46.3118 157.711 46.4244C157.824 46.5371 157.88 46.6801 157.88 46.8534V53.1064C157.88 53.4964 157.989 53.8171 158.205 54.0684C158.422 54.3198 158.695 54.4454 159.024 54.4454H159.427C159.575 54.4454 159.696 54.5018 159.791 54.6144C159.895 54.7271 159.947 54.8701 159.947 55.0434C159.947 55.2168 159.882 55.3598 159.752 55.4724C159.631 55.5764 159.471 55.6284 159.271 55.6284H159.024ZM155.995 49.8044C155.839 49.8044 155.709 49.7568 155.605 49.6614C155.501 49.5661 155.449 49.4448 155.449 49.2974C155.449 49.1414 155.501 49.0158 155.605 48.9204C155.709 48.8251 155.839 48.7774 155.995 48.7774H159.128C159.284 48.7774 159.414 48.8251 159.518 48.9204C159.622 49.0158 159.674 49.1414 159.674 49.2974C159.674 49.4448 159.622 49.5661 159.518 49.6614C159.414 49.7568 159.284 49.8044 159.128 49.8044H155.995ZM164.879 55.6804C164.16 55.6804 163.523 55.5288 162.968 55.2254C162.422 54.9134 161.993 54.4888 161.681 53.9514C161.369 53.4054 161.213 52.7814 161.213 52.0794C161.213 51.3688 161.361 50.7448 161.655 50.2074C161.95 49.6614 162.357 49.2368 162.877 48.9334C163.397 48.6214 164 48.4654 164.684 48.4654C165.352 48.4654 165.928 48.6171 166.413 48.9204C166.899 49.2151 167.271 49.6268 167.531 50.1554C167.791 50.6754 167.921 51.2778 167.921 51.9624C167.921 52.1098 167.869 52.2354 167.765 52.3394C167.67 52.4348 167.54 52.4824 167.375 52.4824H162.032V51.5204H167.388L166.855 51.8974C166.847 51.4381 166.756 51.0264 166.582 50.6624C166.409 50.2984 166.162 50.0124 165.841 49.8044C165.521 49.5964 165.135 49.4924 164.684 49.4924C164.19 49.4924 163.761 49.6051 163.397 49.8304C163.042 50.0558 162.769 50.3634 162.578 50.7534C162.388 51.1434 162.292 51.5854 162.292 52.0794C162.292 52.5734 162.401 53.0154 162.617 53.4054C162.843 53.7868 163.146 54.0901 163.527 54.3154C163.917 54.5408 164.368 54.6534 164.879 54.6534C165.157 54.6534 165.443 54.6014 165.737 54.4974C166.041 54.3934 166.279 54.2721 166.452 54.1334C166.574 54.0381 166.704 53.9904 166.842 53.9904C166.981 53.9818 167.102 54.0208 167.206 54.1074C167.336 54.2288 167.406 54.3631 167.414 54.5104C167.423 54.6491 167.362 54.7704 167.232 54.8744C166.938 55.1084 166.569 55.3034 166.127 55.4594C165.694 55.6068 165.278 55.6804 164.879 55.6804ZM175.658 55.6414C175.485 55.6414 175.338 55.5851 175.216 55.4724C175.104 55.3511 175.047 55.2081 175.047 55.0434V51.7674C175.047 51.2561 174.952 50.8401 174.761 50.5194C174.571 50.1901 174.315 49.9474 173.994 49.7914C173.674 49.6268 173.305 49.5444 172.889 49.5444C172.499 49.5444 172.148 49.6224 171.836 49.7784C171.524 49.9344 171.273 50.1424 171.082 50.4024C170.9 50.6624 170.809 50.9614 170.809 51.2994H170.029C170.038 50.7534 170.177 50.2681 170.445 49.8434C170.714 49.4101 171.078 49.0721 171.537 48.8294C171.997 48.5781 172.512 48.4524 173.084 48.4524C173.691 48.4524 174.233 48.5824 174.709 48.8424C175.186 49.0938 175.563 49.4664 175.84 49.9604C176.118 50.4544 176.256 51.0568 176.256 51.7674V55.0434C176.256 55.2081 176.196 55.3511 176.074 55.4724C175.962 55.5851 175.823 55.6414 175.658 55.6414ZM170.211 55.6414C170.038 55.6414 169.895 55.5851 169.782 55.4724C169.67 55.3598 169.613 55.2168 169.613 55.0434V49.1154C169.613 48.9334 169.67 48.7904 169.782 48.6864C169.895 48.5738 170.038 48.5174 170.211 48.5174C170.393 48.5174 170.536 48.5738 170.64 48.6864C170.753 48.7904 170.809 48.9334 170.809 49.1154V55.0434C170.809 55.2168 170.753 55.3598 170.64 55.4724C170.536 55.5851 170.393 55.6414 170.211 55.6414ZM181.114 55.6284C180.672 55.6284 180.274 55.5201 179.918 55.3034C179.563 55.0781 179.286 54.7791 179.086 54.4064C178.887 54.0251 178.787 53.5918 178.787 53.1064V46.8534C178.787 46.6801 178.839 46.5371 178.943 46.4244C179.056 46.3118 179.199 46.2554 179.372 46.2554C179.546 46.2554 179.689 46.3118 179.801 46.4244C179.914 46.5371 179.97 46.6801 179.97 46.8534V53.1064C179.97 53.4964 180.079 53.8171 180.295 54.0684C180.512 54.3198 180.785 54.4454 181.114 54.4454H181.517C181.665 54.4454 181.786 54.5018 181.881 54.6144C181.985 54.7271 182.037 54.8701 182.037 55.0434C182.037 55.2168 181.972 55.3598 181.842 55.4724C181.721 55.5764 181.561 55.6284 181.361 55.6284H181.114ZM178.085 49.8044C177.929 49.8044 177.799 49.7568 177.695 49.6614C177.591 49.5661 177.539 49.4448 177.539 49.2974C177.539 49.1414 177.591 49.0158 177.695 48.9204C177.799 48.8251 177.929 48.7774 178.085 48.7774H181.218C181.374 48.7774 181.504 48.8251 181.608 48.9204C181.712 49.0158 181.764 49.1414 181.764 49.2974C181.764 49.4448 181.712 49.5661 181.608 49.6614C181.504 49.7568 181.374 49.8044 181.218 49.8044H178.085ZM184.434 55.6284C184.252 55.6284 184.105 55.5721 183.992 55.4594C183.879 55.3468 183.823 55.2038 183.823 55.0304V49.1154C183.823 48.9334 183.879 48.7904 183.992 48.6864C184.105 48.5738 184.252 48.5174 184.434 48.5174C184.607 48.5174 184.75 48.5738 184.863 48.6864C184.976 48.7904 185.032 48.9334 185.032 49.1154V55.0304C185.032 55.2038 184.976 55.3468 184.863 55.4594C184.75 55.5721 184.607 55.6284 184.434 55.6284ZM184.421 47.2824C184.204 47.2824 184.018 47.2044 183.862 47.0484C183.706 46.8924 183.628 46.7018 183.628 46.4764C183.628 46.2511 183.706 46.0648 183.862 45.9174C184.027 45.7614 184.217 45.6834 184.434 45.6834C184.642 45.6834 184.824 45.7614 184.98 45.9174C185.145 46.0648 185.227 46.2511 185.227 46.4764C185.227 46.7018 185.149 46.8924 184.993 47.0484C184.837 47.2044 184.646 47.2824 184.421 47.2824ZM190.555 55.6804C189.905 55.6804 189.325 55.5244 188.813 55.2124C188.302 54.9004 187.899 54.4714 187.604 53.9254C187.31 53.3794 187.162 52.7641 187.162 52.0794C187.162 51.3861 187.318 50.7708 187.63 50.2334C187.951 49.6874 188.38 49.2584 188.917 48.9464C189.463 48.6258 190.074 48.4654 190.75 48.4654C191.435 48.4654 192.046 48.6258 192.583 48.9464C193.121 49.2584 193.545 49.6874 193.857 50.2334C194.178 50.7794 194.343 51.3948 194.351 52.0794L193.883 52.1964C193.883 52.8551 193.736 53.4488 193.441 53.9774C193.147 54.5061 192.748 54.9221 192.245 55.2254C191.751 55.5288 191.188 55.6804 190.555 55.6804ZM190.75 54.6144C191.218 54.6144 191.634 54.5061 191.998 54.2894C192.362 54.0641 192.648 53.7608 192.856 53.3794C193.073 52.9894 193.181 52.5561 193.181 52.0794C193.181 51.5941 193.073 51.1608 192.856 50.7794C192.648 50.3894 192.362 50.0861 191.998 49.8694C191.634 49.6441 191.218 49.5314 190.75 49.5314C190.3 49.5314 189.888 49.6441 189.515 49.8694C189.143 50.0861 188.848 50.3894 188.631 50.7794C188.423 51.1608 188.319 51.5941 188.319 52.0794C188.319 52.5561 188.423 52.9894 188.631 53.3794C188.848 53.7608 189.143 54.0641 189.515 54.2894C189.888 54.5061 190.3 54.6144 190.75 54.6144ZM193.74 55.6414C193.567 55.6414 193.424 55.5851 193.311 55.4724C193.199 55.3598 193.142 55.2168 193.142 55.0434V52.9634L193.389 51.7154L194.351 52.0794V55.0434C194.351 55.2168 194.291 55.3598 194.169 55.4724C194.057 55.5851 193.914 55.6414 193.74 55.6414ZM197.937 55.6284C197.573 55.6284 197.248 55.5288 196.962 55.3294C196.676 55.1301 196.45 54.8571 196.286 54.5104C196.13 54.1551 196.052 53.7478 196.052 53.2884V46.0604C196.052 45.8871 196.104 45.7484 196.208 45.6444C196.32 45.5318 196.463 45.4754 196.637 45.4754C196.819 45.4754 196.962 45.5318 197.066 45.6444C197.178 45.7484 197.235 45.8871 197.235 46.0604V53.2884C197.235 53.6264 197.3 53.9038 197.43 54.1204C197.568 54.3371 197.737 54.4454 197.937 54.4454H198.262C198.426 54.4454 198.556 54.5018 198.652 54.6144C198.747 54.7184 198.795 54.8614 198.795 55.0434C198.795 55.2168 198.721 55.3598 198.574 55.4724C198.435 55.5764 198.253 55.6284 198.028 55.6284H197.937Z" fill="#6DA544"/>
</g>
<defs>
<clipPath id="clip0_874_9048">
<rect width="256" height="58.7794" fill="white" transform="translate(0 0.610352)"/>
</clipPath>
</defs>
</svg>
